<svg width="44" height="46" viewBox="0 0 44 46" fill="none" xmlns="http://www.w3.org/2000/svg">
<circle cx="22.3818" cy="22.6828" r="6.20481" stroke="#005D74" stroke-width="4"/>
<path d="M5.1351 19.8681C6.11245 20.4822 6.74132 21.5283 6.74131 22.6826C6.7413 23.8369 6.11244 24.8829 5.1351 25.497C4.47003 25.9149 4.04153 26.2489 3.73666 26.6462C3.0688 27.5166 2.77404 28.6166 2.91724 29.7043C3.02464 30.5201 3.50649 31.3547 4.47018 33.0238C5.43387 34.693 5.91572 35.5276 6.5685 36.0285C7.43887 36.6963 8.5389 36.9911 9.62659 36.8479C10.1231 36.7825 10.6265 36.5785 11.3208 36.2115C12.3414 35.6721 13.562 35.6506 14.5617 36.2278C15.5614 36.805 16.1529 37.8728 16.196 39.0263C16.2254 39.8111 16.3004 40.3492 16.492 40.8119C16.9119 41.8254 17.7171 42.6307 18.7307 43.0506C19.4909 43.3654 20.4546 43.3654 22.382 43.3654C24.3093 43.3654 25.273 43.3654 26.0332 43.0506C27.0468 42.6307 27.8521 41.8254 28.2719 40.8119C28.4635 40.3492 28.5385 39.8112 28.5679 39.0263C28.611 37.8728 29.2026 36.8051 30.2023 36.2279C31.202 35.6507 32.4224 35.6723 33.443 36.2117C34.1373 36.5787 34.6408 36.7828 35.1373 36.8481C36.225 36.9913 37.325 36.6966 38.1954 36.0287C38.8482 35.5278 39.33 34.6932 40.2937 33.0241C40.7228 32.2809 41.0563 31.7032 41.3038 31.219M39.6288 25.4972C38.6514 24.8832 38.0226 23.8371 38.0225 22.6829C38.0224 21.5285 38.6513 20.4823 39.6288 19.8682C40.2937 19.4503 40.7222 19.1164 41.027 18.7191C41.6949 17.8487 41.9896 16.7487 41.8464 15.661C41.739 14.8452 41.2572 14.0106 40.2935 12.3415C39.3298 10.6723 38.848 9.83771 38.1952 9.33682C37.3248 8.66896 36.2248 8.37421 35.1371 8.5174C34.6406 8.58277 34.1371 8.78683 33.4428 9.15381C32.4222 9.69322 31.2017 9.71475 30.2021 9.13752C29.2025 8.56036 28.611 7.49271 28.5679 6.33929C28.5386 5.55436 28.4636 5.01626 28.2719 4.55356C27.8521 3.53999 27.0468 2.73471 26.0332 2.31488C25.273 2 24.3093 2 22.382 2C20.4546 2 19.4909 2 18.7307 2.31488C17.7171 2.73471 16.9119 3.53999 16.492 4.55356C16.3004 5.01622 16.2254 5.55428 16.196 6.33911C16.1529 7.49263 15.5613 8.56036 14.5616 9.13753C13.562 9.71469 12.3415 9.69313 11.3209 9.15373C10.6266 8.78674 10.1231 8.58266 9.62662 8.5173C8.53892 8.3741 7.43889 8.66885 6.56852 9.33671C5.91574 9.83761 5.43389 10.6722 4.4702 12.3414C4.04117 13.0845 3.70764 13.6621 3.46014 14.1464" stroke="#005D74" stroke-width="4" stroke-linecap="round"/>
</svg>
