<svg width="46" height="41" viewBox="0 0 46 41" fill="none" xmlns="http://www.w3.org/2000/svg">
<circle cx="24.8506" cy="11.25" r="9.25" stroke="#005D74" stroke-width="4"/>
<path d="M36.4131 18.1875C40.2446 18.1875 43.3506 15.5991 43.3506 12.4063C43.3506 9.21335 40.2446 6.625 36.4131 6.625" stroke="#005D74" stroke-width="4" stroke-linecap="round"/>
<path d="M13.2881 18.1875C9.45661 18.1875 6.35059 15.5991 6.35059 12.4063C6.35059 9.21335 9.45661 6.625 13.2881 6.625" stroke="#005D74" stroke-width="4" stroke-linecap="round"/>
<path d="M36.8694 25.125C38.0499 26.4856 38.7256 28.0652 38.7256 29.75C38.7256 34.8586 32.5135 39 24.8506 39C17.1876 39 10.9756 34.8586 10.9756 29.75C10.9756 24.6414 17.1876 20.5 24.8506 20.5C25.6385 20.5 26.411 20.5438 27.1631 20.6279" stroke="#005D74" stroke-width="4" stroke-linecap="round"/>
<path d="M9.81934 35.5313C5.76264 34.6416 2.88184 32.3887 2.88184 29.75C2.88184 27.1113 5.76264 24.8584 9.81934 23.9688" stroke="#005D74" stroke-width="4" stroke-linecap="round"/>
</svg>
