<svg width="40" height="39" viewBox="0 0 40 39" fill="none" xmlns="http://www.w3.org/2000/svg">
<path d="M37.5987 17.9711C37.9137 14.624 38.0712 12.9504 37.4986 12.2586C37.1889 11.8844 36.7677 11.6551 36.3174 11.6156C35.4849 11.5424 34.4394 12.7326 32.3486 15.1129C31.2672 16.3439 30.7266 16.9594 30.1234 17.0547C29.7892 17.1075 29.4487 17.0532 29.1401 16.8979C28.5832 16.6176 28.2119 15.8567 27.4692 14.3349L23.5547 6.3135C22.1514 3.43783 21.4497 2 20.3818 2C19.314 2 18.6123 3.43783 17.209 6.3135L13.2945 14.3349C12.5518 15.8567 12.1805 16.6176 11.6235 16.8979C11.3149 17.0532 10.9744 17.1075 10.6402 17.0547C10.0371 16.9594 9.49643 16.3439 8.41511 15.1129C6.32423 12.7326 5.27878 11.5424 4.44631 11.6156C3.99599 11.6551 3.5748 11.8844 3.26506 12.2586C2.69248 12.9504 2.84999 14.624 3.165 17.9711L3.56609 22.2327C4.22698 29.2548 4.55742 32.7658 6.627 34.8829C8.69658 37 11.7984 37 18.002 37H22.7617C28.9653 37 32.0671 37 34.1367 34.8829C35.736 33.2468 36.2968 30.7782 36.774 26.5" stroke="#005D74" stroke-width="4" stroke-linecap="round"/>
<path d="M15.1318 30H25.6318" stroke="#005D74" stroke-width="4" stroke-linecap="round"/>
</svg>
